<?xml version="1.0" standalone="no"?>
<!DOCTYPE svg PUBLIC "-//W3C//DTD SVG 20010904//EN"
 "http://www.w3.org/TR/2001/REC-SVG-20010904/DTD/svg10.dtd">
<svg version="1.0" xmlns="http://www.w3.org/2000/svg"
 width="512.000000pt" height="512.000000pt" viewBox="0 0 512.000000 512.000000"
 preserveAspectRatio="xMidYMid meet">

<g transform="translate(0.000000,512.000000) scale(0.100000,-0.100000)"
fill="#FFFFFF" stroke="none">
<path d="M2590 5100 c-236 -50 -363 -103 -452 -190 -51 -50 -58 -60 -58 -96 0
-22 7 -49 15 -61 15 -21 14 -24 -27 -49 -24 -15 -122 -72 -218 -127 -96 -54
-183 -108 -192 -119 -28 -31 -24 -100 8 -137 48 -57 269 -105 548 -118 l158
-8 -183 -54 c-296 -88 -642 -204 -819 -276 -177 -71 -464 -211 -516 -250 -59
-45 -68 -129 -19 -175 31 -29 153 -48 393 -59 167 -8 457 -1 602 14 168 19
487 63 805 111 399 62 703 99 870 108 61 4 142 9 180 12 39 3 68 3 65 0 -8 -7
-304 -86 -775 -206 -1264 -321 -1809 -502 -2389 -792 -190 -95 -206 -109 -206
-177 0 -59 32 -105 84 -119 19 -6 180 -6 387 -1 526 12 904 32 1859 99 926 65
1275 88 1278 86 6 -6 -731 -196 -1163 -300 -778 -187 -1068 -267 -1825 -502
-559 -174 -925 -295 -950 -313 -14 -10 -32 -37 -40 -59 -20 -57 0 -117 48
-145 30 -18 41 -18 175 -8 306 25 682 81 1142 171 1020 200 1491 273 2160 336
265 24 906 67 912 60 7 -7 -80 -75 -155 -120 -281 -173 -617 -253 -1362 -326
-519 -50 -669 -70 -858 -112 -107 -24 -146 -49 -163 -108 -10 -32 -9 -44 7
-76 11 -21 33 -48 51 -60 65 -43 364 -90 653 -102 l175 -7 -85 -33 c-47 -18
-105 -40 -130 -50 -28 -11 -53 -30 -68 -52 -23 -34 -24 -38 -17 -180 10 -211
31 -434 44 -458 46 -86 195 -85 225 1 9 25 -7 385 -21 464 -4 27 -2 33 12 33
62 0 545 288 589 352 34 48 12 137 -41 170 -24 14 -21 15 69 27 270 35 569
100 743 161 122 43 273 117 370 182 164 109 365 342 365 423 0 38 -35 94 -70
113 -19 10 -61 12 -180 7 -342 -13 -709 -47 -1700 -159 -607 -69 -701 -81
-924 -122 -76 -13 -143 -23 -148 -22 -26 9 434 125 1062 268 630 143 1168 289
1820 492 198 62 338 110 357 125 64 47 67 154 5 204 -27 21 -31 21 -252 15
-317 -9 -800 -38 -1635 -96 -1007 -69 -1280 -87 -1515 -100 -314 -17 -585 -28
-588 -25 -7 7 328 132 548 206 384 128 674 209 1550 434 651 167 1229 334
1288 372 13 8 33 35 43 59 26 57 14 111 -29 137 -69 40 -421 72 -712 64 -304
-9 -568 -39 -1145 -132 -550 -89 -892 -125 -1163 -125 l-147 1 95 39 c227 96
452 171 1045 349 604 182 866 274 915 323 54 54 47 143 -13 174 -37 20 -125
16 -492 -21 -337 -34 -552 -47 -682 -39 -62 4 -113 10 -113 13 0 4 30 25 68
46 189 111 448 299 575 417 61 58 67 67 67 104 0 48 -22 82 -66 100 -18 8 -35
14 -36 13 -2 0 -41 -9 -88 -19z m-783 -3406 c-3 -3 -12 -4 -19 -1 -8 3 -5 6 6
6 11 1 17 -2 13 -5z"/>
</g>
</svg>
