<?xml version="1.0" standalone="no"?>
<!DOCTYPE svg PUBLIC "-//W3C//DTD SVG 20010904//EN"
 "http://www.w3.org/TR/2001/REC-SVG-20010904/DTD/svg10.dtd">
<svg version="1.0" xmlns="http://www.w3.org/2000/svg"
 width="512.000000pt" height="512.000000pt" viewBox="0 0 512.000000 512.000000"
 preserveAspectRatio="xMidYMid meet">

<g transform="translate(0.000000,512.000000) scale(0.100000,-0.100000)"
fill="#000000" stroke="none">
<path d="M3012 4494 c-17 -12 -22 -24 -20 -47 3 -36 -4 -31 191 -121 200 -93
408 -219 650 -394 96 -69 116 -87 105 -98 -7 -6 -89 -67 -183 -134 -197 -142
-336 -259 -365 -305 -36 -58 -22 -107 37 -131 33 -14 38 -14 87 10 174 86 598
418 668 525 25 37 22 74 -7 109 -36 43 -499 350 -635 421 -135 70 -232 110
-350 144 -128 37 -152 39 -178 21z"/>
<path d="M2490 4180 c-475 -58 -901 -328 -1185 -750 -70 -105 -183 -331 -231
-465 -244 -680 -192 -1529 135 -2178 73 -145 98 -172 161 -172 63 0 125 58
136 126 5 28 -4 62 -44 160 -314 780 -303 1598 28 2237 176 340 490 618 822
726 197 65 416 80 780 55 158 -11 169 -11 188 6 24 22 27 81 5 112 -25 35
-215 99 -379 128 -112 19 -318 27 -416 15z"/>
</g>
</svg>
