<?xml version="1.0" standalone="no"?>
<!DOCTYPE svg PUBLIC "-//W3C//DTD SVG 20010904//EN"
 "http://www.w3.org/TR/2001/REC-SVG-20010904/DTD/svg10.dtd">
<svg version="1.0" xmlns="http://www.w3.org/2000/svg"
 width="512.000000pt" height="512.000000pt" viewBox="0 0 512.000000 512.000000"
 preserveAspectRatio="xMidYMid meet">

<g transform="translate(0.000000,512.000000) scale(0.100000,-0.100000)"
fill="#000000" stroke="none">
<path d="M2948 4324 c-24 -24 -29 -26 -59 -15 -27 9 -35 8 -50 -5 -16 -14 -16
-20 -4 -60 11 -36 11 -52 0 -88 -11 -37 -11 -46 2 -59 12 -12 23 -13 50 -5 32
9 38 7 64 -18 27 -26 29 -26 53 -11 31 20 86 79 86 91 0 5 -7 18 -17 28 -15
17 -15 19 0 36 10 10 17 23 17 29 0 16 -87 103 -102 103 -8 0 -25 -12 -40 -26z"/>
<path d="M546 3769 c-265 -36 -362 -244 -244 -527 65 -156 178 -301 409 -527
237 -231 475 -434 704 -602 l70 -51 18 -89 c100 -492 577 -855 1092 -830 116
6 226 25 292 52 l40 16 104 -46 c458 -205 1007 -376 1279 -400 169 -15 360 33
452 115 152 134 140 337 -36 602 -193 290 -731 783 -1003 918 l-81 41 -12 67
c-39 233 -152 455 -312 614 -307 303 -763 397 -1168 241 l-75 -29 -135 61
c-594 270 -1121 411 -1394 374z m311 -104 c270 -36 595 -129 1031 -297 72 -28
132 -54 132 -57 0 -4 -25 -21 -55 -39 -30 -18 -76 -49 -101 -68 l-46 -36 -57
25 c-95 42 -131 50 -293 67 -350 36 -501 -130 -364 -402 172 -341 511 -626
1260 -1056 375 -215 712 -367 943 -425 272 -69 521 -57 622 29 129 111 54 315
-211 577 l-100 99 11 62 c6 35 11 88 11 119 0 31 4 57 8 57 4 0 24 -16 43 -36
18 -20 126 -115 239 -212 240 -205 517 -480 613 -607 116 -155 178 -309 156
-388 -29 -105 -218 -166 -429 -138 -169 22 -474 108 -775 219 -737 270 -1772
867 -2360 1362 -401 337 -597 538 -693 710 -73 132 -95 283 -49 350 59 88 217
117 464 85z m1819 -396 c332 -46 610 -253 755 -563 159 -340 118 -781 -100
-1075 -83 -112 -74 -109 -183 -65 -188 74 -415 196 -833 446 -364 218 -521
325 -706 480 -39 33 -43 40 -32 57 7 10 44 81 83 157 45 89 92 165 131 211
214 256 567 396 885 352z m-1101 -186 c66 -9 122 -18 124 -19 2 -2 -26 -41
-61 -89 -68 -90 -156 -257 -165 -311 l-5 -32 -50 56 c-119 135 -198 270 -198
338 0 39 3 43 38 57 50 21 168 21 317 0z m2207 -1263 c108 -151 148 -263 114
-316 -31 -46 -77 -58 -221 -58 -127 1 -181 9 -323 50 l-54 15 49 52 c103 109
180 231 228 362 14 39 28 77 31 85 7 19 89 -70 176 -190z m-2017 54 c279 -183
559 -348 834 -492 l114 -60 -48 -8 c-27 -4 -103 -4 -169 -1 -103 4 -137 11
-231 41 -278 92 -486 263 -638 526 -38 66 -61 124 -45 114 7 -5 90 -58 183
-120z"/>
<path d="M4440 3421 c-143 -44 -219 -179 -181 -320 33 -118 127 -195 255 -208
134 -14 271 77 301 199 6 23 2 33 -24 57 -24 23 -31 37 -31 67 0 51 -34 117
-78 154 -60 50 -170 73 -242 51z m199 -130 c40 -21 66 -53 77 -95 5 -21 1 -28
-20 -37 -14 -7 -35 -27 -46 -46 -34 -58 -111 -78 -176 -47 -91 43 -85 182 9
225 54 24 108 24 156 0z"/>
<path d="M600 1694 c-72 -31 -111 -87 -112 -162 -2 -69 18 -117 64 -156 82
-70 215 -67 284 6 60 63 65 99 21 135 -15 12 -23 31 -24 58 -4 51 -28 84 -83
113 -51 25 -100 28 -150 6z m170 -131 l21 -28 -23 -8 c-13 -5 -30 -13 -38 -18
-33 -20 -42 -21 -66 -11 -31 15 -32 55 -2 76 36 25 83 20 108 -11z"/>
</g>
</svg>
