<?xml version="1.0" standalone="no"?>
<!DOCTYPE svg PUBLIC "-//W3C//DTD SVG 20010904//EN"
 "http://www.w3.org/TR/2001/REC-SVG-20010904/DTD/svg10.dtd">
<svg version="1.0" xmlns="http://www.w3.org/2000/svg"
 width="512.000000pt" height="512.000000pt" viewBox="0 0 512.000000 512.000000"
 preserveAspectRatio="xMidYMid meet">

<g transform="translate(0.000000,512.000000) scale(0.100000,-0.100000)"
fill="#000000" stroke="none">
<path d="M2504 5110 c-18 -6 -46 -26 -62 -44 -40 -46 -44 -86 -40 -376 3 -224
4 -237 26 -271 55 -90 209 -90 264 0 22 35 23 42 23 318 0 269 -1 283 -21 309
-11 15 -31 36 -45 46 -29 22 -103 31 -145 18z"/>
<path d="M4206 4540 c-36 -11 -73 -46 -139 -130 -28 -36 -84 -103 -123 -150
-97 -116 -114 -146 -114 -201 0 -88 68 -149 165 -149 48 0 51 2 115 68 65 69
211 249 263 324 80 119 -33 280 -167 238z"/>
<path d="M628 4158 c-60 -38 -83 -75 -83 -135 0 -46 4 -56 35 -88 73 -76 290
-228 427 -299 118 -61 204 -41 252 57 46 95 19 147 -119 225 -109 62 -229 142
-313 209 -49 39 -65 47 -110 50 -41 3 -59 -1 -89 -19z"/>
<path d="M2294 3936 c-107 -16 -238 -43 -277 -58 -34 -13 -87 -72 -87 -98 0
-20 -6 -25 -115 -97 -282 -185 -496 -469 -605 -803 -98 -300 -96 -668 6 -953
240 -666 1084 -1032 1830 -792 117 38 327 144 431 219 265 191 467 451 567
731 161 453 33 990 -326 1370 -239 252 -541 409 -908 471 -120 21 -404 26
-516 10z m394 -307 c585 -63 1008 -456 1112 -1033 38 -207 -37 -468 -192 -677
-198 -269 -545 -484 -868 -540 -98 -17 -285 -17 -380 0 -495 87 -866 478 -921
970 -35 314 106 668 368 923 141 137 331 249 527 309 56 17 110 38 121 45 23
17 100 18 233 3z"/>
<path d="M4461 2592 c-47 -23 -72 -61 -78 -115 -7 -57 10 -106 48 -143 l30
-29 242 -3 c220 -2 245 -1 276 16 100 54 94 222 -9 274 -30 16 -65 18 -255 18
-190 0 -225 -2 -254 -18z"/>
<path d="M150 2563 c-103 -53 -109 -227 -10 -278 24 -12 84 -15 327 -15 278 0
300 1 330 20 43 26 66 73 66 138 0 58 -17 89 -67 126 -26 20 -42 21 -319 24
-263 2 -295 1 -327 -15z"/>
<path d="M4074 1121 c-73 -44 -108 -129 -81 -192 8 -19 52 -74 98 -124 45 -49
129 -148 186 -220 58 -71 114 -136 126 -144 31 -22 115 -19 157 5 71 40 94
129 54 207 -20 37 -208 271 -301 374 -104 113 -167 138 -239 94z"/>
<path d="M1293 1039 c-21 -6 -58 -38 -110 -96 -43 -47 -120 -131 -171 -186
-101 -110 -119 -146 -101 -210 13 -48 68 -103 119 -118 82 -25 126 11 370 292
102 117 118 177 69 258 -30 49 -114 78 -176 60z"/>
<path d="M2525 753 c-37 -10 -83 -52 -93 -85 -9 -29 -27 -408 -25 -525 1 -112
147 -182 241 -115 63 46 80 143 81 467 1 174 -7 203 -62 240 -26 17 -108 27
-142 18z"/>
</g>
</svg>
