<?xml version="1.0" standalone="no"?>
<!DOCTYPE svg PUBLIC "-//W3C//DTD SVG 20010904//EN"
 "http://www.w3.org/TR/2001/REC-SVG-20010904/DTD/svg10.dtd">
<svg version="1.0" xmlns="http://www.w3.org/2000/svg"
 width="512.000000pt" height="512.000000pt" viewBox="0 0 512.000000 512.000000"
 preserveAspectRatio="xMidYMid meet">

<g transform="translate(0.000000,512.000000) scale(0.100000,-0.100000)"
fill="#FFFFFF" stroke="none">
<path d="M3330 4640 c-185 -19 -549 -39 -815 -45 -154 -3 -494 -13 -755 -20
-261 -8 -747 -20 -1080 -26 -655 -12 -638 -10 -662 -67 -8 -17 -12 -92 -11
-202 0 -145 5 -210 32 -380 50 -329 56 -457 43 -1010 -8 -323 -18 -565 -32
-725 -29 -326 -24 -595 13 -736 37 -140 64 -198 96 -205 14 -3 55 -12 91 -21
48 -12 143 -18 365 -24 169 -4 472 -20 695 -38 1025 -80 1480 -80 1915 -1 55
10 101 17 102 16 2 -1 -31 -112 -72 -247 -41 -134 -75 -252 -75 -262 0 -23 53
-77 74 -77 9 0 42 13 73 30 90 48 132 37 194 -53 29 -44 40 -52 70 -55 24 -2
44 4 61 18 24 18 27 28 33 117 3 54 13 184 21 288 8 105 15 212 17 239 3 79
23 67 30 -19 8 -85 36 -166 157 -452 43 -102 87 -191 97 -199 46 -35 103 -9
132 61 7 17 30 62 53 101 l40 72 124 -41 c136 -46 160 -45 197 5 17 23 18 31
8 55 -12 28 -123 163 -249 302 l-62 69 92 6 c51 4 174 13 273 22 99 8 240 18
314 22 123 8 136 10 153 32 26 33 32 65 16 97 -10 20 -11 40 -5 68 12 62 29
1055 23 1385 -3 162 -10 351 -16 419 -9 106 -9 130 5 163 18 47 7 83 -44 137
-17 19 -47 68 -67 109 -41 89 -114 190 -239 326 -49 55 -126 140 -170 190
-213 243 -300 327 -430 411 -181 117 -287 146 -550 150 -104 2 -228 -1 -275
-5z m428 -622 c2 -316 14 -580 31 -667 6 -35 20 -64 35 -79 l24 -25 374 2
c206 1 409 -1 452 -5 l79 -7 -9 -331 c-15 -564 -11 -1128 10 -1287 10 -76 19
-145 19 -155 2 -15 -6 -19 -38 -21 -22 -2 -80 -8 -130 -14 -93 -12 -257 -18
-252 -9 1 3 17 33 35 67 88 170 81 370 -20 566 -57 112 -182 238 -285 290
-291 144 -655 42 -788 -222 -42 -84 -56 -138 -62 -246 -8 -149 31 -310 103
-418 30 -45 26 -53 -15 -39 -108 38 -509 40 -1031 7 -398 -26 -654 -18 -1065
35 -258 33 -376 43 -541 47 l-211 6 -6 361 c-3 198 -11 449 -17 556 -8 120
-10 303 -6 475 3 154 9 411 12 572 7 310 -1 450 -37 622 -10 52 -17 96 -15 98
2 2 73 8 157 13 133 9 217 16 504 45 306 32 531 38 1560 44 589 4 1084 8 1100
9 l31 2 2 -292z m258 127 c26 -33 123 -139 215 -235 92 -96 221 -238 287 -315
l119 -140 -196 -6 c-108 -4 -259 -10 -337 -14 l-140 -6 -1 373 c0 205 -4 385
-8 398 -9 30 -4 26 61 -55z m-125 -1921 c87 -26 144 -60 217 -129 259 -244
191 -627 -123 -693 -83 -18 -277 5 -380 44 -111 43 -193 168 -202 310 -20 308
227 545 488 468z"/>
<path d="M1010 3819 c-97 -16 -200 -77 -200 -117 0 -36 18 -44 124 -58 303
-39 804 -42 1661 -9 209 8 450 15 536 15 152 0 157 1 183 25 33 31 36 90 5
129 l-20 26 -227 0 c-125 -1 -328 -5 -452 -10 -795 -32 -923 -33 -1144 -11
-218 22 -372 25 -466 10z"/>
<path d="M1275 3380 c-294 -10 -393 -19 -410 -37 -19 -18 -19 -34 -2 -57 12
-16 41 -20 223 -32 235 -15 663 -28 1464 -45 574 -12 663 -9 711 29 26 22 28
75 5 101 -10 11 -41 25 -69 31 -62 14 -1590 22 -1922 10z"/>
<path d="M3090 2943 c-53 -11 -216 -14 -895 -13 -898 0 -1140 -7 -1192 -33
-36 -19 -63 -44 -63 -58 0 -6 20 -19 44 -30 60 -26 236 -36 926 -50 577 -12
1135 -7 1230 10 35 7 58 7 64 1 21 -21 59 -10 92 26 53 56 41 121 -28 148 -46
19 -90 19 -178 -1z"/>
<path d="M1830 2599 c-568 -46 -890 -93 -914 -131 -47 -76 287 -103 729 -58
360 36 690 29 1112 -21 117 -14 143 -7 164 44 24 57 -26 103 -156 147 -175 59
-397 63 -935 19z"/>
</g>
</svg>
