<?xml version="1.0" standalone="no"?>
<!DOCTYPE svg PUBLIC "-//W3C//DTD SVG 20010904//EN"
 "http://www.w3.org/TR/2001/REC-SVG-20010904/DTD/svg10.dtd">
<svg version="1.0" xmlns="http://www.w3.org/2000/svg"
 width="512.000000pt" height="512.000000pt" viewBox="0 0 512.000000 512.000000"
 preserveAspectRatio="xMidYMid meet">

<g transform="translate(0.000000,512.000000) scale(0.100000,-0.100000)"
fill="#FFFFFF" stroke="none">
<path d="M2515 4650 c-218 -57 -466 -190 -691 -370 l-89 -72 -308 6 c-353 7
-361 6 -396 -67 -26 -54 -41 -185 -41 -364 l0 -143 -27 -6 c-174 -41 -373
-203 -462 -374 -70 -135 -102 -242 -120 -412 -12 -104 3 -1023 19 -1203 29
-326 84 -547 186 -746 62 -120 100 -170 172 -228 118 -94 268 -161 444 -197
126 -25 486 -30 793 -9 160 10 508 19 965 25 852 11 1026 19 1164 54 149 38
236 85 332 181 158 158 233 375 249 730 3 66 10 370 16 675 5 305 14 680 19
833 7 195 6 293 -1 328 -13 58 -58 116 -98 126 -14 3 -46 23 -71 44 -92 77
-314 219 -352 226 l-38 6 2 196 c2 213 -4 251 -48 292 l-26 24 -261 0 -262 0
-125 94 c-297 223 -465 312 -672 355 -100 21 -186 19 -273 -4z m213 -226 c88
-29 207 -90 313 -160 l74 -49 -247 -3 c-137 -1 -359 -1 -495 0 l-248 3 82 58
c105 74 234 142 303 161 80 21 132 19 218 -10z m1222 -406 c0 -2 7 -223 15
-493 8 -269 17 -562 21 -651 l7 -161 -129 -100 c-71 -55 -212 -162 -314 -238
-102 -76 -251 -190 -332 -252 l-147 -114 -82 41 c-129 66 -209 83 -379 84
-156 0 -226 -12 -346 -60 l-65 -26 -90 86 c-155 148 -364 296 -726 516 l-190
115 -6 230 c-4 127 -7 399 -7 606 l0 377 188 6 c103 3 684 11 1292 17 608 5
1125 11 1150 13 80 4 140 6 140 4z m478 -746 c19 -14 24 -31 29 -87 l5 -70
-126 -122 c-69 -67 -135 -127 -145 -132 -18 -10 -19 -3 -26 140 -4 83 -4 220
0 304 l7 154 117 -85 c64 -46 126 -92 139 -102z m-3453 -279 l-7 -92 -26 17
c-29 17 -157 114 -206 155 l-30 24 29 49 c33 57 119 150 190 207 l50 40 3
-154 c2 -85 0 -195 -3 -246z m15 -373 c65 -49 279 -196 476 -326 384 -253 514
-343 514 -355 0 -4 -24 -21 -54 -39 -73 -41 -230 -156 -341 -248 -49 -41 -233
-218 -407 -395 l-316 -320 -32 62 c-57 115 -99 310 -121 576 -13 158 -15 707
-4 1048 l7 225 80 -69 c44 -38 133 -109 198 -159z m3461 -471 c-19 -895 -39
-1055 -148 -1203 l-36 -50 -40 45 c-362 396 -632 662 -854 842 -62 50 -113 94
-112 97 0 3 54 39 120 80 199 124 516 369 944 727 l130 110 3 -71 c2 -39 -1
-299 -7 -577z m-1668 -278 c177 -46 393 -180 652 -405 44 -39 211 -199 370
-357 238 -236 287 -289 270 -293 -11 -3 -85 -13 -165 -23 -127 -16 -203 -17
-620 -13 -891 9 -1266 5 -1535 -14 -173 -13 -294 -17 -395 -12 -142 6 -311 33
-311 49 0 5 49 54 110 110 60 56 199 187 307 290 243 232 364 335 517 437 180
122 369 204 540 235 104 19 173 18 260 -4z"/>
<path d="M2418 3784 c-288 -52 -505 -244 -587 -519 -32 -109 -43 -224 -30
-329 41 -346 272 -591 614 -651 161 -28 270 -17 450 43 96 32 112 41 128 70
24 42 16 91 -22 134 -34 38 -57 40 -211 14 -411 -69 -720 136 -720 479 0 135
54 260 155 360 293 290 837 116 906 -291 16 -91 6 -156 -31 -197 -25 -28 -30
-30 -53 -20 -20 10 -32 32 -62 125 -21 62 -52 142 -69 178 -41 85 -122 172
-194 207 -51 25 -68 28 -157 28 -94 0 -105 -2 -170 -34 -89 -44 -157 -113
-198 -199 -30 -62 -32 -75 -32 -172 0 -99 2 -110 32 -171 39 -79 102 -140 181
-177 50 -24 69 -27 162 -27 96 0 110 3 160 29 30 15 76 48 101 73 l46 45 22
-31 c12 -16 46 -42 77 -57 47 -23 64 -26 117 -22 235 19 357 296 262 596 -37
116 -88 195 -195 303 -85 85 -108 102 -200 147 -162 79 -303 99 -482 66z m204
-590 c30 -15 69 -76 93 -144 15 -43 15 -44 -12 -73 -50 -53 -113 -87 -161 -87
-144 0 -217 151 -126 260 56 66 131 81 206 44z"/>
</g>
</svg>
