<?xml version="1.0" standalone="no"?>
<!DOCTYPE svg PUBLIC "-//W3C//DTD SVG 20010904//EN"
 "http://www.w3.org/TR/2001/REC-SVG-20010904/DTD/svg10.dtd">
<svg version="1.0" xmlns="http://www.w3.org/2000/svg"
 width="512.000000pt" height="512.000000pt" viewBox="0 0 512.000000 512.000000"
 preserveAspectRatio="xMidYMid meet">

<g transform="translate(0.000000,512.000000) scale(0.100000,-0.100000)"
fill="#FFFFFF" stroke="none">
<path d="M2915 4476 c-27 -7 -92 -31 -144 -55 -138 -62 -159 -63 -326 -5 -127
43 -148 48 -230 47 -166 0 -292 -51 -406 -163 -111 -110 -178 -249 -186 -390
-3 -46 -13 -92 -25 -118 -38 -81 -9 -193 85 -334 188 -282 490 -523 800 -638
76 -29 92 -32 120 -22 221 76 283 112 488 284 226 189 303 277 381 433 149
298 125 607 -62 794 -122 122 -359 202 -495 167z m-565 -146 c47 -18 114 -44
150 -57 93 -35 183 -29 303 20 122 51 168 60 236 46 81 -16 192 -72 246 -124
160 -156 152 -442 -20 -700 -61 -91 -111 -142 -275 -280 -143 -121 -266 -203
-352 -238 l-66 -26 -64 25 c-177 72 -333 178 -488 334 -115 115 -178 198 -256
337 -32 59 -71 119 -85 134 -26 28 -27 29 -13 92 52 249 208 418 429 467 69
15 164 4 255 -30z"/>
<path d="M2015 4147 c-28 -13 -64 -39 -80 -58 -37 -45 -77 -132 -83 -184 -4
-38 -2 -43 19 -48 33 -9 122 -8 135 1 5 4 18 29 28 55 17 44 98 139 164 189
24 20 26 26 12 48 -6 10 -31 15 -77 18 -56 2 -77 -1 -118 -21z"/>
<path d="M748 3987 c-80 -67 -106 -215 -115 -652 -8 -419 9 -655 87 -1205 53
-370 58 -476 31 -712 -25 -221 -26 -287 -7 -314 14 -19 15 -19 43 2 38 28 105
163 129 260 16 66 19 114 18 299 0 208 -3 237 -47 535 -59 405 -76 586 -84
900 -6 238 6 532 26 645 l7 40 18 -34 c61 -115 129 -340 176 -586 104 -533
198 -745 484 -1080 54 -63 102 -115 108 -115 6 0 64 52 130 115 261 250 428
339 493 263 20 -23 22 -33 15 -58 -23 -82 -174 -310 -296 -448 -30 -34 -117
-115 -192 -180 -180 -156 -283 -267 -321 -345 -52 -105 -94 -335 -107 -577 -5
-104 -5 -105 14 -84 13 16 27 72 50 211 35 213 71 347 109 413 41 70 116 143
273 268 186 148 271 231 379 367 207 261 258 376 213 477 -48 110 -185 147
-333 89 -75 -29 -214 -122 -323 -217 l-89 -78 -39 45 c-58 66 -161 223 -206
314 -78 157 -133 348 -192 665 -69 377 -202 719 -302 780 -46 28 -115 27 -150
-3z"/>
<path d="M4274 3999 c-108 -30 -245 -358 -340 -812 -86 -413 -145 -583 -268
-772 -51 -79 -155 -215 -163 -215 -2 0 -45 37 -96 81 -162 143 -284 216 -404
239 -82 16 -157 -5 -218 -61 -131 -121 -97 -239 174 -603 106 -141 155 -191
341 -341 223 -180 280 -259 320 -444 12 -53 30 -139 42 -191 35 -161 77 -250
118 -250 32 0 45 61 44 210 -2 229 -58 437 -153 561 -60 79 -111 127 -271 254
-166 132 -205 173 -334 350 -118 160 -179 266 -174 299 2 11 15 27 29 35 22
12 32 12 82 -4 95 -30 196 -105 451 -337 l68 -62 39 44 c340 388 437 594 544
1155 42 220 90 397 147 545 22 58 43 107 45 110 17 19 35 -104 54 -365 14
-183 6 -600 -16 -844 -9 -96 -29 -280 -46 -410 -36 -281 -48 -548 -29 -684 14
-108 62 -300 87 -353 10 -21 24 -40 32 -42 17 -6 14 16 -24 193 -51 240 -44
464 26 888 22 133 46 289 54 347 77 560 70 1230 -15 1406 -32 64 -84 90 -146
73z"/>
</g>
</svg>
