<?xml version="1.0" standalone="no"?>
<!DOCTYPE svg PUBLIC "-//W3C//DTD SVG 20010904//EN"
 "http://www.w3.org/TR/2001/REC-SVG-20010904/DTD/svg10.dtd">
<svg version="1.0" xmlns="http://www.w3.org/2000/svg"
 width="512.000000pt" height="512.000000pt" viewBox="0 0 512.000000 512.000000"
 preserveAspectRatio="xMidYMid meet">

<g transform="translate(0.000000,512.000000) scale(0.100000,-0.100000)"
fill="#FFFFFF" stroke="none">
<path d="M2055 4139 c-230 -21 -468 -75 -610 -139 -143 -64 -261 -170 -314
-283 -35 -75 -55 -191 -81 -468 -67 -718 -28 -1438 95 -1742 98 -241 293 -358
695 -417 546 -80 1051 -90 1425 -29 453 74 646 218 720 537 22 95 39 294 87
1007 13 196 4 545 -17 680 -55 349 -171 566 -368 689 -134 83 -236 106 -647
147 -233 23 -815 34 -985 18z m1592 -368 c108 -55 152 -184 99 -296 -56 -121
-208 -188 -320 -141 -75 31 -166 167 -166 246 0 83 67 171 156 205 55 21 178
14 231 -14z m-900 -270 c170 -35 319 -112 445 -230 195 -183 291 -404 291
-671 0 -268 -98 -505 -287 -694 -377 -376 -959 -346 -1388 74 -128 125 -198
336 -198 595 0 359 156 646 445 817 196 116 458 157 692 109z"/>
<path d="M2405 3176 c-100 -25 -251 -126 -317 -214 -101 -132 -142 -333 -103
-501 31 -131 136 -285 256 -376 272 -206 604 -173 794 78 174 229 117 582
-135 838 -69 69 -101 94 -170 127 -123 61 -217 75 -325 48z"/>
</g>
</svg>
