<?xml version="1.0" standalone="no"?>
<!DOCTYPE svg PUBLIC "-//W3C//DTD SVG 20010904//EN"
 "http://www.w3.org/TR/2001/REC-SVG-20010904/DTD/svg10.dtd">
<svg version="1.0" xmlns="http://www.w3.org/2000/svg"
 width="512.000000pt" height="512.000000pt" viewBox="0 0 512.000000 512.000000"
 preserveAspectRatio="xMidYMid meet">

<g transform="translate(0.000000,512.000000) scale(0.100000,-0.100000)"
fill="#FFFFFF" stroke="none">
<path d="M677 4805 c-54 -8 -122 -21 -150 -31 -243 -79 -428 -280 -498 -540
-17 -60 -22 -109 -22 -204 -1 -110 3 -135 26 -206 63 -191 227 -361 424 -443
111 -45 168 -56 303 -56 102 0 139 5 200 24 444 138 679 577 534 996 -87 251
-300 427 -561 465 -86 12 -134 11 -256 -5z m316 -284 c109 -43 191 -129 233
-246 28 -77 25 -240 -4 -327 -48 -140 -150 -255 -279 -315 -94 -43 -159 -56
-257 -51 -102 5 -177 38 -243 105 -95 95 -143 224 -143 381 0 235 105 403 289
464 84 27 322 21 404 -11z"/>
<path d="M2490 3934 c-8 -3 -131 -8 -272 -12 -296 -8 -300 -9 -329 -98 -20
-60 -52 -634 -74 -1314 -15 -461 -18 -1446 -7 -1818 l7 -204 36 -33 36 -33
169 -8 c257 -13 751 -10 796 5 50 17 98 72 98 114 0 18 -22 169 -49 337 -104
642 -122 941 -76 1230 40 250 143 422 296 499 91 46 151 54 344 49 148 -5 180
-9 250 -31 150 -49 251 -138 320 -282 110 -230 122 -482 55 -1170 -44 -449
-52 -683 -26 -734 30 -56 52 -63 311 -87 341 -32 616 -47 647 -35 41 15 78 68
78 109 0 20 3 235 7 477 11 649 9 964 -6 1095 -54 479 -224 838 -539 1142
-284 274 -625 426 -1052 469 -172 17 -466 1 -640 -36 l-26 -6 -17 148 c-19
158 -28 182 -80 213 -27 17 -49 20 -137 19 -58 -1 -112 -3 -120 -5z m70 -271
c0 -5 5 -65 10 -136 8 -108 13 -134 35 -171 52 -89 91 -100 236 -67 301 66
581 73 824 20 348 -75 633 -258 866 -554 169 -214 263 -421 310 -681 29 -159
31 -483 5 -819 -11 -132 -19 -340 -20 -463 l-1 -222 -60 5 c-33 3 -145 12
-250 21 -104 9 -194 18 -199 21 -11 7 -1 300 21 628 23 341 23 728 0 870 -78
475 -299 704 -757 786 -90 16 -256 13 -359 -6 -228 -43 -411 -176 -516 -376
-120 -229 -170 -556 -147 -967 12 -196 52 -563 86 -772 9 -52 16 -99 16 -103
0 -11 -566 -5 -576 6 -12 12 -8 1444 5 1847 7 201 21 534 32 740 10 206 19
378 19 382 0 4 57 9 128 11 70 1 164 4 210 5 45 1 82 -1 82 -5z"/>
<path d="M374 3072 c-29 -19 -35 -29 -65 -117 -23 -70 -16 -246 51 -1200 44
-623 56 -823 66 -1095 4 -114 11 -197 19 -217 10 -22 29 -40 64 -58 48 -24 74
-27 399 -53 285 -23 358 -26 407 -16 79 14 119 36 135 74 16 39 12 185 -41
1549 -36 930 -41 1028 -58 1067 -32 72 -23 71 -511 78 -418 7 -436 6 -466 -12z
m724 -256 c6 -7 82 -2013 82 -2171 l0 -71 -237 19 c-131 10 -239 20 -239 20
-1 1 -7 115 -13 252 -7 138 -30 500 -51 805 -33 465 -70 1059 -70 1135 0 20 6
20 262 17 145 -2 264 -5 266 -6z"/>
</g>
</svg>
