<?xml version="1.0" standalone="no"?>
<!DOCTYPE svg PUBLIC "-//W3C//DTD SVG 20010904//EN"
 "http://www.w3.org/TR/2001/REC-SVG-20010904/DTD/svg10.dtd">
<svg version="1.0" xmlns="http://www.w3.org/2000/svg"
 width="512.000000pt" height="512.000000pt" viewBox="0 0 512.000000 512.000000"
 preserveAspectRatio="xMidYMid meet">

<g transform="translate(0.000000,512.000000) scale(0.100000,-0.100000)"
fill="#FFFFFF" stroke="none">
<path d="M2625 5021 c-88 -22 -185 -121 -185 -191 0 -12 -7 -20 -16 -20 -9 0
-89 22 -178 49 -409 126 -660 167 -956 158 -146 -4 -191 -9 -275 -31 -571
-152 -813 -679 -659 -1434 43 -211 132 -470 225 -653 16 -34 29 -62 27 -63 -2
-2 -32 -22 -67 -46 -83 -56 -209 -176 -271 -259 -203 -271 -301 -682 -260
-1092 40 -393 198 -782 399 -979 300 -295 891 -444 1279 -323 148 46 257 135
319 260 30 61 36 85 41 161 4 73 1 103 -17 160 -11 39 -21 73 -21 76 0 3 39
-34 88 -82 290 -290 562 -384 788 -272 119 59 194 153 245 308 28 86 32 114
37 244 5 162 -4 246 -64 572 -19 104 -32 191 -29 194 7 7 106 20 162 21 l43 1
63 -127 c35 -71 108 -228 162 -351 59 -132 113 -239 132 -262 46 -53 107 -81
183 -82 52 -1 72 5 143 41 215 108 376 315 438 561 26 107 37 359 20 470 -10
61 -10 76 1 83 7 4 53 30 102 58 258 146 447 343 536 555 170 410 -33 837
-566 1184 -108 70 -327 186 -436 230 l-56 23 14 41 c56 157 4 323 -135 432
-161 128 -392 209 -990 349 -198 46 -214 48 -266 36z m-1123 -506 c148 -11
404 -70 682 -157 l129 -40 -104 -42 c-422 -170 -805 -556 -1125 -1133 -16 -29
-32 -53 -35 -53 -13 0 -103 210 -145 336 -64 194 -85 312 -91 499 -5 140 -3
171 16 249 56 232 185 332 456 349 50 3 75 2 217 -8z m1666 -638 l73 -12 -118
-151 c-116 -148 -119 -151 -181 -173 -155 -57 -282 -203 -343 -396 -12 -38
-24 -73 -28 -77 -3 -4 -42 2 -86 13 -163 39 -318 53 -576 54 -227 0 -246 1
-238 17 18 33 158 215 215 279 128 144 294 278 427 346 121 60 226 90 422 117
54 8 358 -4 433 -17z m712 -204 c254 -103 516 -283 639 -438 131 -164 132
-288 3 -437 -49 -56 -135 -128 -212 -176 l-45 -28 -71 135 c-108 210 -198 334
-341 472 -93 91 -179 162 -251 208 -28 18 -52 35 -52 38 0 3 24 36 53 72 29
36 75 96 102 134 55 76 42 74 175 20z m-562 -676 c186 -121 333 -290 442 -508
22 -43 40 -80 40 -82 0 -4 -109 -35 -213 -61 l-57 -14 -62 80 c-99 131 -197
237 -293 317 -49 41 -89 80 -89 87 2 13 153 224 161 224 2 0 35 -20 71 -43z
m-1099 -374 l33 -8 -55 -62 c-30 -33 -80 -93 -111 -132 -31 -39 -61 -71 -65
-71 -22 0 -148 44 -238 83 -95 41 -317 166 -309 174 2 2 48 10 102 18 107 15
579 14 643 -2z m-963 -473 c97 -64 325 -178 431 -215 43 -16 82 -32 87 -36 5
-4 -1 -44 -13 -91 -29 -116 -40 -245 -31 -357 11 -118 21 -167 60 -273 l30
-82 -67 74 c-38 41 -118 127 -179 191 -164 174 -235 255 -299 344 -136 191
-179 343 -134 475 6 17 17 29 23 27 7 -3 48 -28 92 -57z m-628 -92 c1 -199 67
-387 206 -593 87 -128 167 -223 368 -436 210 -222 267 -288 308 -355 40 -66
37 -70 -60 -80 -143 -15 -363 31 -527 111 -130 64 -195 127 -260 252 -185 353
-215 823 -71 1144 17 38 32 69 33 69 1 0 3 -51 3 -112z m3299 -255 c-2 -65 -9
-129 -14 -142 -9 -22 -14 -15 -61 82 -72 152 -72 140 -5 159 93 25 86 33 80
-99z m-1487 -34 l125 -12 28 -161 c15 -88 38 -226 52 -306 26 -147 36 -343 19
-373 -22 -38 -248 161 -339 299 -21 32 -52 96 -68 143 -27 79 -29 93 -25 196
6 134 31 225 62 225 12 0 77 -5 146 -11z"/>
</g>
</svg>
