<?xml version="1.0" standalone="no"?>
<!DOCTYPE svg PUBLIC "-//W3C//DTD SVG 20010904//EN"
 "http://www.w3.org/TR/2001/REC-SVG-20010904/DTD/svg10.dtd">
<svg version="1.0" xmlns="http://www.w3.org/2000/svg"
 width="512.000000pt" height="512.000000pt" viewBox="0 0 512.000000 512.000000"
 preserveAspectRatio="xMidYMid meet">

<g transform="translate(0.000000,512.000000) scale(0.100000,-0.100000)"
fill="#FFFFFF" stroke="none">
<path d="M4345 4980 c-1290 -309 -1746 -442 -3140 -920 -269 -93 -573 -195
-675 -228 -210 -69 -316 -114 -411 -178 -72 -47 -95 -84 -85 -131 5 -22 2 -34
-14 -48 -23 -20 -25 -46 -8 -78 22 -42 355 -452 443 -547 220 -236 386 -355
578 -416 l57 -18 0 -40 c0 -23 -5 -92 -10 -153 -65 -791 -5 -1442 170 -1829
51 -113 117 -125 210 -39 29 27 48 34 110 44 53 8 104 26 175 61 103 51 401
240 585 371 373 267 479 345 507 371 l32 31 63 -40 c228 -143 479 -243 688
-274 199 -29 313 27 417 207 123 210 309 618 433 944 135 357 455 1304 525
1552 129 464 156 822 84 1152 -27 126 -88 206 -156 206 -17 0 -23 6 -23 21 0
11 -13 34 -29 50 -24 23 -38 29 -73 28 -24 0 -227 -45 -453 -99z m34 -313
c-110 -92 -328 -265 -392 -311 -121 -86 -450 -280 -937 -551 -478 -266 -600
-343 -810 -512 -74 -60 -208 -168 -298 -240 -347 -280 -495 -354 -702 -354
-192 0 -363 75 -570 251 -82 70 -480 460 -480 471 0 3 46 22 103 42 56 20 417
147 802 283 793 279 1522 523 1741 584 82 22 372 85 644 140 477 95 681 142
840 194 41 13 77 24 80 25 3 0 -7 -10 -21 -22z m518 -209 c16 -464 -95 -896
-457 -1778 -171 -416 -203 -502 -276 -743 -112 -372 -175 -515 -277 -623 -69
-75 -124 -108 -209 -130 -165 -43 -430 37 -714 215 -83 53 -541 368 -568 392
-17 15 449 555 1285 1489 550 614 709 795 972 1103 136 159 224 254 230 248 5
-5 11 -83 14 -173z m-721 -299 c-15 -17 -99 -107 -188 -200 -180 -188 -176
-186 -177 -66 -1 66 0 68 30 85 17 9 103 60 192 114 89 53 164 96 165 97 2 1
-8 -13 -22 -30z m-486 -336 c0 -38 5 -88 11 -112 10 -43 9 -45 -28 -83 -20
-21 -40 -38 -43 -38 -5 0 -39 152 -48 217 -4 29 0 33 44 57 27 14 52 25 57 26
4 0 7 -30 7 -67z m-207 -120 c4 -43 16 -111 27 -152 23 -82 27 -72 -55 -161
-27 -30 -70 -77 -93 -103 -79 -88 -110 -47 -132 172 -5 57 -10 123 -10 146 l0
43 123 66 c67 36 125 66 128 66 3 0 9 -35 12 -77z m-353 -220 c0 -174 30 -287
85 -317 11 -6 22 -12 24 -13 2 -1 -27 -36 -64 -77 -59 -66 -70 -74 -87 -65
-11 6 -28 9 -38 6 -16 -4 -21 6 -34 67 -20 88 -43 237 -54 338 l-8 77 80 46
c45 25 84 45 89 45 4 0 7 -48 7 -107z m-256 -160 c8 -146 19 -224 53 -381 23
-109 24 -124 11 -140 -21 -23 -198 -240 -226 -276 -12 -16 -24 -27 -26 -25
-14 14 -29 214 -34 467 -6 227 -10 295 -20 301 -10 6 22 32 105 89 65 45 121
81 124 82 3 0 9 -53 13 -117z m-311 -175 c-4 -46 -8 -209 -8 -363 l0 -280 26
-56 26 -56 -76 -97 -76 -97 -26 278 c-31 320 -45 439 -64 520 l-13 57 41 36
c23 19 68 58 102 87 33 29 63 53 68 53 4 0 4 -37 0 -82z m-279 -220 c17 -140
25 -320 28 -605 l3 -312 -48 -65 c-26 -36 -57 -68 -68 -71 -26 -9 -52 -60 -43
-88 3 -12 18 -34 32 -50 l26 -27 -34 -35 c-19 -19 -37 -32 -41 -28 -13 14 -29
266 -39 588 -5 176 -13 376 -17 445 -4 69 -7 128 -8 132 0 8 186 167 196 168
4 0 10 -24 13 -52z m-288 -210 c-7 -42 -23 -273 -31 -448 -10 -214 22 -596 56
-683 7 -15 22 -30 34 -33 21 -5 17 -14 -72 -157 -119 -191 -119 -191 -115
-122 5 77 -18 871 -32 1105 -9 162 -14 195 -26 195 -12 0 -17 -20 -22 -90 -4
-49 -19 -198 -32 -330 -14 -132 -27 -285 -31 -340 -3 -55 -13 -181 -22 -280
-18 -205 -13 -402 11 -480 l16 -50 -32 -45 c-17 -25 -61 -83 -97 -130 l-66
-85 -3 165 c-2 91 4 341 14 555 9 215 18 533 19 709 l3 318 53 24 c72 34 199
112 289 178 41 30 79 55 83 56 4 0 5 -15 3 -32z m-559 -325 c-11 -82 -75 -746
-96 -993 -12 -129 -24 -271 -28 -315 l-7 -80 -12 90 c-21 151 -33 347 -39 610
-3 138 -7 352 -10 478 l-6 227 28 0 c15 1 55 7 88 14 92 21 88 22 82 -31z
m1090 -915 l146 -112 -49 -44 c-159 -141 -803 -612 -838 -612 -4 0 17 33 47
73 72 99 331 475 390 567 26 41 67 114 90 162 25 53 47 85 55 83 6 -3 78 -55
159 -117z"/>
<path d="M67 1573 c-51 -58 -70 -340 -34 -496 43 -183 178 -367 270 -367 29 0
67 41 67 74 0 11 -36 77 -80 146 -52 81 -90 153 -107 205 -26 75 -28 91 -28
255 0 96 -4 181 -8 188 -12 18 -61 15 -80 -5z"/>
<path d="M342 1504 c-20 -14 -22 -24 -22 -100 0 -149 68 -419 129 -516 24 -37
37 -48 66 -54 28 -5 41 -2 56 12 30 27 21 86 -34 226 -58 146 -74 201 -97 322
-22 122 -45 147 -98 110z"/>
<path d="M2597 640 c-15 -12 -41 -49 -59 -83 -49 -92 -144 -182 -261 -246
-114 -62 -132 -86 -100 -129 29 -38 78 -35 170 11 214 106 363 262 363 380 0
79 -56 112 -113 67z"/>
<path d="M2944 580 c-12 -4 -66 -56 -120 -115 -54 -58 -152 -152 -217 -207
-65 -56 -122 -109 -128 -119 -26 -49 3 -99 57 -99 39 0 109 47 290 195 224
182 270 253 212 319 -26 29 -63 39 -94 26z"/>
</g>
</svg>
