<?xml version="1.0" standalone="no"?>
<!DOCTYPE svg PUBLIC "-//W3C//DTD SVG 20010904//EN"
 "http://www.w3.org/TR/2001/REC-SVG-20010904/DTD/svg10.dtd">
<svg version="1.0" xmlns="http://www.w3.org/2000/svg"
 width="512.000000pt" height="512.000000pt" viewBox="0 0 512.000000 512.000000"
 preserveAspectRatio="xMidYMid meet">

<g transform="translate(0.000000,512.000000) scale(0.100000,-0.100000)"
fill="#000000" stroke="none">
<path d="M1057 4260 c-158 -40 -242 -176 -203 -329 46 -181 205 -395 646 -871
63 -69 143 -155 176 -192 l61 -68 -8 -49 c-12 -77 -69 -285 -179 -656 -113
-378 -185 -651 -195 -737 -6 -48 -4 -65 15 -103 43 -89 270 -305 321 -305 45
0 69 25 142 149 83 141 269 481 432 791 60 113 110 207 112 209 3 5 17 -7 307
-267 119 -107 216 -197 216 -201 0 -4 -9 -93 -20 -199 -11 -105 -17 -200 -13
-209 12 -35 73 -101 245 -265 96 -92 185 -169 200 -173 18 -5 32 0 52 17 30
26 50 106 106 413 17 94 38 200 46 236 18 79 -7 69 259 98 345 38 418 50 445
69 31 23 37 65 15 98 -22 34 -302 349 -358 403 l-46 44 -213 -10 -213 -9 -100
105 c-55 58 -162 170 -237 250 -76 79 -138 146 -138 150 0 3 96 60 213 125
615 346 865 491 890 517 15 16 27 39 27 52 0 59 -208 301 -294 341 -67 31
-175 8 -741 -159 -599 -177 -728 -211 -759 -199 -8 3 -117 114 -243 246 -530
560 -777 735 -966 688z m162 -190 c147 -79 374 -281 698 -622 123 -130 242
-248 263 -263 77 -54 125 -46 585 90 602 177 808 236 875 247 l68 12 45 -37
c25 -20 63 -59 86 -86 l42 -50 -68 -39 c-120 -70 -763 -431 -916 -515 -81 -44
-152 -88 -157 -98 -30 -54 -42 -39 518 -621 l93 -98 77 0 c42 0 142 5 221 11
l144 10 45 -43 c24 -24 79 -84 123 -135 l79 -92 -33 -6 c-17 -3 -115 -14 -217
-25 -300 -32 -347 -47 -376 -116 -23 -55 -49 -170 -84 -364 -17 -96 -34 -184
-39 -195 -7 -18 -23 -5 -136 106 l-129 127 17 210 c9 116 14 218 11 226 -3 9
-96 96 -207 193 -110 98 -261 233 -334 300 -74 68 -137 123 -142 123 -4 0 -22
-5 -39 -11 -28 -9 -48 -43 -190 -312 -280 -531 -456 -847 -471 -847 -11 0
-123 118 -146 153 -17 26 -17 31 -1 112 9 46 49 194 87 327 272 940 279 967
279 1052 0 48 -5 60 -44 113 -24 32 -113 132 -198 221 -396 423 -586 668 -636
818 -23 71 -3 115 63 139 58 21 81 18 144 -15z"/>
</g>
</svg>
