<?xml version="1.0" standalone="no"?>
<!DOCTYPE svg PUBLIC "-//W3C//DTD SVG 20010904//EN"
 "http://www.w3.org/TR/2001/REC-SVG-20010904/DTD/svg10.dtd">
<svg version="1.0" xmlns="http://www.w3.org/2000/svg"
 width="512.000000pt" height="512.000000pt" viewBox="0 0 512.000000 512.000000"
 preserveAspectRatio="xMidYMid meet">

<g transform="translate(0.000000,512.000000) scale(0.100000,-0.100000)"
fill="#FFFFFF" stroke="none">
<path d="M3290 4211 c-100 -22 -195 -60 -266 -107 -51 -34 -131 -112 -150
-147 -9 -16 -16 -17 -55 -8 -129 31 -364 23 -511 -18 l-63 -17 -73 62 c-150
127 -306 185 -502 187 -354 2 -700 -216 -849 -534 -104 -223 -90 -468 39 -678
34 -54 36 -61 17 -61 -26 0 -193 -88 -255 -134 -396 -293 -572 -840 -393
-1222 46 -99 150 -168 303 -200 58 -13 111 -15 263 -10 105 3 219 8 255 11
l65 6 44 -92 c57 -120 134 -199 253 -257 166 -83 335 -108 657 -98 119 4 446
9 726 11 535 6 656 12 795 46 238 56 396 198 442 396 l13 53 240 -6 c264 -7
334 1 437 50 113 53 162 116 210 266 20 67 23 93 22 240 -1 149 -3 174 -28
255 -32 110 -100 253 -164 348 -106 160 -313 332 -465 388 -34 12 -63 23 -64
24 -2 1 17 36 41 79 144 253 116 558 -76 818 -117 160 -314 292 -508 343 -100
26 -295 29 -400 6z m410 -261 c235 -79 414 -263 451 -465 32 -175 -43 -379
-195 -530 -116 -115 -232 -180 -376 -211 -70 -15 -180 -19 -180 -6 0 4 11 40
25 79 108 318 12 691 -240 933 l-68 64 40 36 c135 120 360 161 543 100z
m-1941 -57 c63 -16 150 -61 201 -103 l35 -28 -71 -74 c-86 -89 -124 -145 -175
-253 -62 -133 -81 -219 -82 -370 -1 -142 18 -237 68 -335 14 -27 25 -52 25
-55 0 -3 -38 -5 -83 -5 -302 0 -592 216 -684 507 -22 72 -25 97 -21 182 3 92
6 104 46 185 51 102 126 187 223 251 168 113 339 145 518 98z m936 -158 c182
-32 335 -150 416 -319 100 -208 90 -457 -26 -654 -128 -218 -367 -323 -644
-283 -169 25 -298 86 -401 190 -114 116 -170 253 -170 421 0 327 259 596 625
649 87 12 111 12 200 -4z m1573 -968 c201 -114 359 -305 430 -520 51 -152 66
-340 37 -451 -20 -78 -41 -110 -85 -135 -72 -40 -151 -51 -380 -51 l-216 0
-11 98 c-27 224 -125 415 -299 581 -46 45 -108 97 -139 116 -78 50 -206 111
-265 126 -28 7 -50 16 -50 20 0 4 8 17 18 30 18 21 22 22 77 11 217 -44 481
33 683 200 57 46 57 46 92 32 19 -8 68 -34 108 -57z m-3221 -31 c143 -126 354
-216 512 -216 l66 0 -70 -42 c-99 -58 -257 -220 -314 -321 -88 -156 -138 -324
-148 -498 l-6 -106 -96 -7 c-318 -21 -500 9 -559 91 -11 16 -28 55 -37 88 -24
81 -16 297 15 405 56 199 182 382 346 506 72 54 216 134 241 134 7 0 30 -15
50 -34z m945 -311 c191 -142 478 -221 704 -195 149 17 293 66 386 132 28 19
28 19 123 -6 241 -64 459 -220 558 -398 75 -133 120 -367 99 -505 -30 -191
-126 -281 -337 -317 -175 -30 -308 -36 -861 -44 -916 -12 -946 -10 -1094 45
-129 48 -204 124 -243 247 -30 98 -30 304 1 418 65 238 177 400 373 535 60 41
215 132 226 133 2 0 31 -20 65 -45z"/>
</g>
</svg>
